<svg id="Capa_1" data-name="Capa 1" xmlns="http://www.w3.org/2000/svg" viewBox="0 0 34.86 50"><defs><style>.cls-1{fill:#ac6140;}.cls-2{fill:#c49877;}</style></defs><path class="cls-1" d="M32,17.84,21.13,19.1l-3.67.43h0l-3.69-.43L2.86,17.83a.25.25,0,0,1,0-.48l11.07-1.29,3.5-.4h0l3.48.4,11,1.28A.26.26,0,0,1,32,17.84Z"/><path class="cls-2" d="M13.28,15.47l1.5-.2a0,0,0,0,0,0,0V13.81s0,0,0,0l-4.51-2.55s-.09,0-.06.07l3,4.17S13.27,15.48,13.28,15.47Z"/><path class="cls-1" d="M15.56,15.19l1.85-.26h0l1.86.27a0,0,0,0,0,.06,0V8.52a4,4,0,0,0-.2-1.24l-1.5-4.52a.26.26,0,0,0-.48,0L15.7,7.29a3.9,3.9,0,0,0-.2,1.22v6.63A.05.05,0,0,0,15.56,15.19Z"/><path class="cls-1" d="M15.56,19.93l1.86.27h0l1.87-.28s.05,0,.05,0V36.68a4.91,4.91,0,0,1-.05.67L17.69,47.2a.25.25,0,0,1-.49,0l-1.65-9.85a4.91,4.91,0,0,1-.05-.67V20A.05.05,0,0,1,15.56,19.93Z"/><path class="cls-2" d="M13.28,19.72l1.48.2a0,0,0,0,1,.05,0v1.41a.05.05,0,0,1,0,.05L10.31,24c-.05,0-.11,0-.07-.08l3-4.14S13.26,19.72,13.28,19.72Z"/><path class="cls-2" d="M21.58,15.47l-1.48-.2a0,0,0,0,1-.05,0V13.81a.08.08,0,0,1,0-.05l4.48-2.53c.05,0,.1,0,.07.08l-3,4.14S21.6,15.47,21.58,15.47Z"/><path class="cls-2" d="M21.6,19.72l-1.49.2a0,0,0,0,0,0,0v1.41a.05.05,0,0,0,0,.05L24.58,24a.05.05,0,0,0,.07-.08l-3-4.14A0,0,0,0,0,21.6,19.72Z"/></svg>